<svg width="46.000000" height="46.000000" viewBox="0 0 46 46" fill="none" xmlns="http://www.w3.org/2000/svg" xmlns:xlink="http://www.w3.org/1999/xlink">
	<desc>
			Created with Pixso.
	</desc>
	<defs/>
	<circle id="Эллипс 1" cx="23.000000" cy="23.000000" r="22.000000" stroke="#0F2346" stroke-opacity="1.000000" stroke-width="2.000000"/>
	<path id="Слияние" d="M17.0747 14.7173C17.0747 11.4677 19.7275 8.83334 22.9998 8.83334C26.272 8.83334 28.9248 11.4677 28.9248 14.7173C28.9248 17.4211 27.0884 19.6989 24.5867 20.3878C24.8193 20.431 25.051 20.4838 25.2817 20.5463C26.009 20.7431 26.7134 21.0322 27.3948 21.4134C28.7246 22.1574 29.8984 23.2028 30.9167 24.5497C31.9231 25.8809 32.7012 27.4061 33.251 29.1252C33.2974 29.2703 33.3418 29.4159 33.3843 29.5621L33.385 29.5646C33.8616 31.2012 34.0999 32.9072 34.0999 34.6826C34.0999 35.1025 33.77 35.4326 33.3499 35.4326C32.9299 35.4326 32.5999 35.1025 32.5999 34.6826C32.5999 32.9862 32.3643 31.3614 31.8926 29.8081C31.8696 29.7326 31.8462 29.6572 31.8223 29.582C31.3245 28.0254 30.6238 26.6494 29.7202 25.4542C28.8284 24.2747 27.8091 23.364 26.6624 22.7225C25.8513 22.2686 25.0146 21.9724 24.1528 21.8337C23.7734 21.7726 23.3892 21.7421 23 21.7421C22.6106 21.7421 22.2263 21.7726 21.8469 21.8337L21.8469 21.8337C20.9851 21.9724 20.1484 22.2687 19.3374 22.7225C18.1907 23.364 17.1714 24.2747 16.2795 25.4542C15.376 26.6494 14.6753 28.0254 14.1777 29.582C14.1536 29.6572 14.1301 29.7325 14.1072 29.8079C13.6357 31.3612 13.3999 32.9861 13.3999 34.6826C13.3999 35.1025 13.0698 35.4326 12.6499 35.4326C12.23 35.4326 11.8999 35.1025 11.8999 34.6826C11.8999 32.907 12.1382 31.2009 12.6147 29.5641L12.6147 29.5641L12.6152 29.5626C12.658 29.4163 12.7024 29.2704 12.7488 29.1252C13.2986 27.4061 14.0767 25.8809 15.083 24.5497C16.1013 23.2028 17.2754 22.1574 18.605 21.4134C19.2864 21.0322 19.9907 20.7431 20.718 20.5463C20.9487 20.4839 21.1802 20.431 21.4131 20.3878C18.9111 19.699 17.0747 17.4211 17.0747 14.7173ZM18.5747 14.7173C18.5747 12.2961 20.5559 10.3333 22.9998 10.3333C25.4436 10.3333 27.4248 12.2961 27.4248 14.7173C27.4248 17.1385 25.4436 19.1012 22.9998 19.1012C20.5559 19.1012 18.5747 17.1385 18.5747 14.7173Z" clip-rule="evenodd" fill="#0F2346" fill-opacity="1.000000" fill-rule="evenodd"/>
</svg>
