<svg width="240.066895" height="52.076172" viewBox="0 0 240.067 52.0762" fill="none" xmlns="http://www.w3.org/2000/svg" xmlns:xlink="http://www.w3.org/1999/xlink">
	<desc>
			Created with Pixso.
	</desc>
	<defs/>
	<path id="path" d="M24.64 0.26C23.96 0.36 23.37 0.48 23.34 0.53C23.29 0.56 23.34 1.02 23.43 1.53C23.51 2.05 23.6 2.6 23.62 2.76C23.65 2.99 23.46 3.09 22.61 3.31C20.66 3.84 20.87 3.92 20.47 2.64C20.28 2.02 20.06 1.52 19.99 1.52C19.57 1.52 16.93 2.45 16.93 2.6C16.93 2.7 17.09 3.24 17.3 3.81C17.49 4.38 17.67 4.93 17.67 5.01C17.67 5.15 15.58 6.55 15.38 6.55C15.33 6.55 14.86 6.08 14.33 5.52C13.78 4.94 13.31 4.48 13.25 4.48C13.21 4.48 12.62 4.95 11.94 5.53L10.71 6.58L11.7 7.69L12.69 8.79L11.69 9.81L10.68 10.82L9.68 10.02C9.13 9.58 8.64 9.22 8.61 9.22C8.58 9.22 8.07 9.8 7.48 10.49C6.58 11.56 6.43 11.81 6.6 11.95C7.74 12.8 8.66 13.55 8.66 13.6C8.66 13.68 7.49 15.89 7.37 16.02C7.34 16.06 6.77 15.9 6.07 15.66C5.39 15.43 4.8 15.26 4.77 15.31C4.52 15.59 3.61 18.28 3.72 18.39C3.8 18.46 4.33 18.67 4.89 18.85C5.47 19.03 5.97 19.22 6.01 19.28C6.12 19.37 5.56 21.87 5.41 22C5.36 22.05 4.8 21.99 4.17 21.87C3.52 21.77 2.97 21.69 2.94 21.72C2.91 21.74 2.74 22.48 2.54 23.35C2.31 24.46 2.25 24.96 2.37 24.99C2.45 25.02 3 25.13 3.56 25.22C5.16 25.48 5.11 25.45 5.11 26.12L5.11 26.7L8.29 26.7L11.46 26.7L11.46 25.84C11.48 22.51 12.82 18.67 14.93 15.89C15.64 14.97 17.4 13.15 17.8 12.94C18.02 12.82 18.29 13.15 19.67 15.25C20.56 16.6 21.42 17.93 21.57 18.2L21.85 18.67L21.17 19.45C20.32 20.43 19.57 21.82 19.13 23.29C18.83 24.21 18.77 24.73 18.79 26.25C18.79 27.27 18.86 28.37 18.97 28.7C19.1 29.14 19.1 29.3 18.95 29.39C18.86 29.45 14.59 30.9 9.48 32.62C4.36 34.32 0.12 35.79 0.06 35.85C0 35.91 4.27 34.52 9.57 32.74C14.86 30.96 19.2 29.53 19.22 29.56C19.23 29.57 19.35 29.9 19.48 30.27C19.63 30.64 19.97 31.3 20.25 31.75C21.24 33.32 21.51 32.78 17.87 36.53C14.83 39.69 14.57 39.92 12.96 40.9L11.24 41.94L10.89 43.76C10.7 44.77 10.47 45.7 10.4 45.83C10.33 45.98 10.31 46.1 10.37 46.1C10.43 46.1 11.33 45.65 12.39 45.09L14.31 44.1L14.99 42.68C15.66 41.29 15.76 41.15 18.89 37.94C20.66 36.12 22.22 34.56 22.33 34.5C22.47 34.43 22.72 34.52 23.03 34.74C24.06 35.54 25.61 36.15 27.16 36.4C27.62 36.47 27.71 36.55 27.71 36.84C27.71 37.05 27.62 37.21 27.53 37.21C27.15 37.2 25.38 36.92 25.14 36.83C24.93 36.75 24.9 36.89 24.9 38C24.9 39.12 24.93 39.27 25.18 39.36C25.42 39.43 25.46 39.54 25.38 40C25.2 41.06 25.23 41.12 25.86 41.23C26.19 41.29 26.5 41.3 26.54 41.27C26.6 41.24 26.68 40.89 26.73 40.47C26.82 39.8 26.87 39.73 27.19 39.73C27.55 39.73 27.56 39.78 27.56 40.55L27.56 41.36L28.3 41.36L29.04 41.36L29.04 40.55C29.04 39.8 29.07 39.73 29.41 39.64C29.98 39.49 30.18 39.66 30.28 40.38C30.38 41.03 30.41 41.06 30.85 41.06C31.61 41.06 31.7 40.93 31.52 40.12C31.37 39.38 31.43 39.2 31.89 39.11C32.1 39.08 32.23 39.24 32.43 39.79C32.6 40.17 32.75 40.53 32.77 40.56C32.83 40.62 33.91 40.2 33.91 40.12C33.91 40.1 33.78 39.7 33.63 39.24C33.42 38.65 33.39 38.4 33.51 38.35C33.72 38.28 32.92 36.64 32.64 36.52C32.54 36.49 32.01 36.59 31.46 36.75C30.9 36.9 30.22 37.08 29.97 37.12C29.51 37.2 29.48 37.17 29.48 36.8C29.48 36.43 29.56 36.38 30.53 36.15C31.12 36 31.84 35.76 32.15 35.58L32.73 35.29L34.41 37.86C36.67 41.32 36.54 40.97 35.8 41.36C34.46 42.06 31.4 42.99 30.41 42.99L29.92 42.99L29.92 46.51L29.92 50.04L31.08 49.91C31.7 49.83 32.43 49.76 32.72 49.76C33.26 49.73 33.23 49.68 33.68 51.59L33.76 51.99L35.34 51.7C36.22 51.55 36.95 51.39 37 51.36C37.03 51.31 36.94 50.72 36.79 50.01C36.64 49.28 36.58 48.69 36.66 48.63C36.73 48.57 37.29 48.28 37.91 48L39.05 47.46L39.91 48.63C40.38 49.27 40.82 49.8 40.9 49.8C41.19 49.8 43.64 47.98 43.56 47.83C43.5 47.74 43.14 47.24 42.74 46.72C42.36 46.19 42.03 45.71 42.03 45.67C42.03 45.61 42.51 45.18 43.08 44.71L44.13 43.85L45.08 44.78L46.04 45.7L46.66 45.12C47 44.81 47.56 44.28 47.91 43.95L48.53 43.37L47.5 42.32L46.46 41.27L47.2 40.25C47.6 39.69 47.96 39.17 47.99 39.09C48 39.02 48.55 39.2 49.18 39.49C49.82 39.79 50.42 40.03 50.51 40.03C50.64 40.03 52.08 37.39 52.08 37.15C52.08 37.12 51.55 36.84 50.9 36.53C50.25 36.24 49.71 35.94 49.71 35.89C49.71 35.85 49.91 35.3 50.14 34.7C50.38 34.09 50.6 33.41 50.66 33.17L50.75 32.77L47.28 32.77L43.81 32.77L43.58 33.3C43.27 34.06 42.39 35.51 41.64 36.5C40.96 37.41 39.11 39.29 38.9 39.29C38.83 39.29 38.4 38.71 37.94 38C37.49 37.27 36.66 36.01 36.1 35.17C35.55 34.34 35.09 33.61 35.09 33.57C35.09 33.54 35.36 33.15 35.7 32.74C36.73 31.42 37.56 29.47 37.81 27.69L37.91 26.99L38.58 26.99C39.15 26.99 39.23 27.02 39.23 27.33C39.23 28.39 38.21 31.27 37.46 32.33C37.29 32.55 37.16 32.78 37.16 32.83C37.16 32.87 37.47 32.92 37.87 32.92C38.34 32.92 38.87 33.07 39.49 33.36C40.01 33.61 40.48 33.78 40.56 33.73C40.69 33.64 41.06 32.77 40.99 32.71C40.96 32.7 40.62 32.49 40.22 32.27C39.61 31.93 39.54 31.84 39.67 31.58C39.86 31.23 39.91 31.23 40.71 31.51C41.52 31.79 41.52 31.79 41.71 31.36C41.99 30.74 41.92 30.61 41.19 30.33C40.28 29.99 40.23 29.93 40.35 29.45C40.44 29.05 40.45 29.05 41.37 29.14C41.87 29.2 42.33 29.19 42.37 29.13C42.42 29.05 42.48 28.76 42.51 28.47L42.55 27.96L41.66 27.81C40.91 27.67 40.76 27.6 40.73 27.32C40.69 27.01 40.73 26.99 41.65 26.99L42.62 26.99L42.62 26.33L42.62 25.66L41.66 25.66L40.71 25.66L40.71 25.16C40.71 24.59 40.75 24.56 41.86 24.4L42.51 24.3L42.4 23.75C42.34 23.45 42.26 23.17 42.21 23.11C42.15 23.07 41.75 23.08 41.33 23.17C40.68 23.31 40.5 23.29 40.39 23.13C40.16 22.74 40.26 22.61 41.09 22.33C41.53 22.18 41.93 22.02 41.95 21.97C41.98 21.93 41.9 21.63 41.78 21.34L41.56 20.8L40.75 21.08C40.29 21.23 39.91 21.35 39.89 21.34C39.82 21.17 39.52 20.45 39.52 20.4C39.52 20.37 39.89 20.14 40.35 19.88C40.79 19.62 41.21 19.32 41.25 19.22C41.34 18.98 40.88 18.26 40.65 18.26C40.56 18.27 40.16 18.49 39.75 18.77C39.01 19.28 39.01 19.28 38.77 18.98C38.55 18.68 38.53 18.68 37.91 19.25L37.28 19.81L37.65 20.37C38.19 21.17 38.9 23.1 39.11 24.31C39.21 24.89 39.26 25.39 39.21 25.42C39.17 25.47 38.87 25.54 38.53 25.6L37.93 25.69L37.83 24.98C37.66 23.78 37.18 22.24 36.57 21.13L36.01 20.08L37.96 18.45C43.67 13.63 45.89 11.78 46.76 11.09L47.72 10.3L48.75 10.41C49.33 10.46 49.79 10.49 49.8 10.49C49.99 10.29 52.82 5.49 52.82 5.37C52.82 5.16 53.04 5.12 49.67 6.11L46.92 6.92L46.85 7.59C46.8 7.96 46.73 8.63 46.67 9.07L46.57 9.89L40.96 14.57L35.33 19.26L34.43 18.45C33.44 17.54 31.67 16.6 30.43 16.31C29.66 16.14 29.63 16.12 29.63 15.63C29.63 15.09 29.57 15.1 30.96 15.46C31.24 15.53 31.52 15.59 31.59 15.59C31.65 15.59 31.7 15.06 31.7 14.39C31.7 13.29 31.67 13.19 31.39 13.12C31.11 13.04 31.09 12.95 31.18 12.26L31.27 11.47L30.66 11.37C30.32 11.31 30.03 11.29 29.98 11.34C29.95 11.37 29.87 11.69 29.81 12.05C29.75 12.42 29.61 12.7 29.51 12.69C29.42 12.67 29.23 12.66 29.11 12.64C28.95 12.63 28.89 12.43 28.89 11.89L28.89 11.15L28.23 11.15L27.56 11.15L27.56 11.89C27.56 12.49 27.52 12.63 27.31 12.63C27.16 12.63 26.9 12.67 26.72 12.72C26.42 12.79 26.38 12.73 26.29 12.21C26.16 11.37 26.07 11.29 25.43 11.4L24.87 11.49L24.98 12.26C25.07 12.98 25.05 13.04 24.73 13.13C24.21 13.26 24.21 13.26 24.02 12.55C23.81 11.81 23.78 11.8 23.06 12.09L22.55 12.32L22.76 12.83C22.88 13.12 22.98 13.5 22.98 13.68C22.98 13.93 23.63 15.1 24.11 15.71C24.12 15.74 24.74 15.63 25.46 15.46C27.16 15.06 27.15 15.06 27.09 15.6C27.04 16.05 26.99 16.09 25.86 16.43C25.21 16.63 24.58 16.82 24.45 16.86C24.27 16.92 23.78 16.3 22.54 14.37C21.62 12.97 20.78 11.66 20.66 11.49C20.46 11.18 20.49 11.15 21.3 10.78C23.2 9.9 26.04 9.22 27.83 9.22L28.45 9.22L28.45 5.89L28.45 2.56L27.74 2.56L27.01 2.56L26.82 1.3C26.6 -0.15 26.78 -0.07 24.64 0.26ZM29.57 20.2C32.85 20.8 35.09 23.97 34.55 27.23C33.69 32.25 27.49 34.21 23.91 30.58C20.56 27.16 22.14 21.51 26.82 20.24C27.66 20 28.46 19.99 29.57 20.2Z" fill="#FFFFFF" fill-opacity="1.000000" fill-rule="nonzero"/>
	<path id="path" d="M23.34 0.53C23.29 0.56 23.34 1.02 23.43 1.53C23.51 2.05 23.6 2.6 23.62 2.76C23.65 2.99 23.46 3.09 22.61 3.31C20.66 3.84 20.87 3.92 20.47 2.64C20.28 2.02 20.06 1.52 19.99 1.52C19.57 1.52 16.93 2.45 16.93 2.6C16.93 2.7 17.09 3.24 17.3 3.81C17.49 4.38 17.67 4.93 17.67 5.01C17.67 5.15 15.58 6.55 15.38 6.55C15.33 6.55 14.86 6.08 14.33 5.52C13.78 4.94 13.31 4.48 13.25 4.48C13.21 4.48 12.62 4.95 11.94 5.53L10.71 6.58L11.7 7.69L12.69 8.79L11.69 9.81L10.68 10.82L9.68 10.02C9.13 9.58 8.64 9.22 8.61 9.22C8.58 9.22 8.07 9.8 7.48 10.49C6.58 11.56 6.43 11.81 6.6 11.95C7.74 12.8 8.66 13.55 8.66 13.6C8.66 13.68 7.49 15.89 7.37 16.02C7.34 16.06 6.77 15.9 6.07 15.66C5.39 15.43 4.8 15.26 4.77 15.31C4.52 15.59 3.61 18.28 3.72 18.39C3.8 18.46 4.33 18.67 4.89 18.85C5.47 19.03 5.97 19.22 6.01 19.28C6.12 19.37 5.56 21.87 5.41 22C5.36 22.05 4.8 21.99 4.17 21.87C3.52 21.77 2.97 21.69 2.94 21.72C2.91 21.74 2.74 22.48 2.54 23.35C2.31 24.46 2.25 24.96 2.37 24.99C2.45 25.02 3 25.13 3.56 25.22C5.16 25.48 5.11 25.45 5.11 26.12L5.11 26.7L8.29 26.7L11.46 26.7L11.46 25.84C11.48 22.51 12.82 18.67 14.93 15.89C15.64 14.97 17.4 13.15 17.8 12.94C18.02 12.82 18.29 13.15 19.67 15.25C20.56 16.6 21.42 17.93 21.57 18.2L21.85 18.67L21.17 19.45C20.32 20.43 19.57 21.82 19.13 23.29C18.83 24.21 18.77 24.73 18.79 26.25C18.79 27.27 18.86 28.37 18.97 28.7C19.1 29.14 19.1 29.3 18.95 29.39C18.86 29.45 14.59 30.9 9.48 32.62C4.36 34.32 0.12 35.79 0.06 35.85C0 35.91 4.27 34.52 9.57 32.74C14.86 30.96 19.2 29.53 19.22 29.56C19.23 29.57 19.35 29.9 19.48 30.27C19.63 30.64 19.97 31.3 20.25 31.75C21.24 33.32 21.51 32.78 17.87 36.53C14.83 39.69 14.57 39.92 12.96 40.9L11.24 41.94L10.89 43.76C10.7 44.77 10.47 45.7 10.4 45.83C10.33 45.98 10.31 46.1 10.37 46.1C10.43 46.1 11.33 45.65 12.39 45.09L14.31 44.1L14.99 42.68C15.66 41.29 15.76 41.15 18.89 37.94C20.66 36.12 22.22 34.56 22.33 34.5C22.47 34.43 22.72 34.52 23.03 34.74C24.06 35.54 25.61 36.15 27.16 36.4C27.62 36.47 27.71 36.55 27.71 36.84C27.71 37.05 27.62 37.21 27.53 37.21C27.15 37.2 25.38 36.92 25.14 36.83C24.93 36.75 24.9 36.89 24.9 38C24.9 39.12 24.93 39.27 25.18 39.36C25.42 39.43 25.46 39.54 25.38 40C25.2 41.06 25.23 41.12 25.86 41.23C26.19 41.29 26.5 41.3 26.54 41.27C26.6 41.24 26.68 40.89 26.73 40.47C26.82 39.8 26.87 39.73 27.19 39.73C27.55 39.73 27.56 39.78 27.56 40.55L27.56 41.36L28.3 41.36L29.04 41.36L29.04 40.55C29.04 39.8 29.07 39.73 29.41 39.64C29.98 39.49 30.18 39.66 30.28 40.38C30.38 41.03 30.41 41.06 30.85 41.06C31.61 41.06 31.7 40.93 31.52 40.12C31.37 39.38 31.43 39.2 31.89 39.11C32.1 39.08 32.23 39.24 32.43 39.79C32.6 40.17 32.75 40.53 32.77 40.56C32.83 40.62 33.91 40.2 33.91 40.12C33.91 40.1 33.78 39.7 33.63 39.24C33.42 38.65 33.39 38.4 33.51 38.35C33.72 38.28 32.92 36.64 32.64 36.52C32.54 36.49 32.01 36.59 31.46 36.75C30.9 36.9 30.22 37.08 29.97 37.12C29.51 37.2 29.48 37.17 29.48 36.8C29.48 36.43 29.56 36.38 30.53 36.15C31.12 36 31.84 35.76 32.15 35.58L32.73 35.29L34.41 37.86C36.67 41.32 36.54 40.97 35.8 41.36C34.46 42.06 31.4 42.99 30.41 42.99L29.92 42.99L29.92 46.51L29.92 50.04L31.08 49.91C31.7 49.83 32.43 49.76 32.72 49.76C33.26 49.73 33.23 49.68 33.68 51.59L33.76 51.99L35.34 51.7C36.22 51.55 36.95 51.39 37 51.36C37.03 51.31 36.94 50.72 36.79 50.01C36.64 49.28 36.58 48.69 36.66 48.63C36.73 48.57 37.29 48.28 37.91 48L39.05 47.46L39.91 48.63C40.38 49.27 40.82 49.8 40.9 49.8C41.19 49.8 43.64 47.98 43.56 47.83C43.5 47.74 43.14 47.24 42.74 46.72C42.36 46.19 42.03 45.71 42.03 45.67C42.03 45.61 42.51 45.18 43.08 44.71L44.13 43.85L45.08 44.78L46.04 45.7L46.66 45.12C47 44.81 47.56 44.28 47.91 43.95L48.53 43.37L47.5 42.32L46.46 41.27L47.2 40.25C47.6 39.69 47.96 39.17 47.99 39.09C48 39.02 48.55 39.2 49.18 39.49C49.82 39.79 50.42 40.03 50.51 40.03C50.64 40.03 52.08 37.39 52.08 37.15C52.08 37.12 51.55 36.84 50.9 36.53C50.25 36.24 49.71 35.94 49.71 35.89C49.71 35.85 49.91 35.3 50.14 34.7C50.38 34.09 50.6 33.41 50.66 33.17L50.75 32.77L47.28 32.77L43.81 32.77L43.58 33.3C43.27 34.06 42.39 35.51 41.64 36.5C40.96 37.41 39.11 39.29 38.9 39.29C38.83 39.29 38.4 38.71 37.94 38C37.49 37.27 36.66 36.01 36.1 35.17C35.55 34.34 35.09 33.61 35.09 33.57C35.09 33.54 35.36 33.15 35.7 32.74C36.73 31.42 37.56 29.47 37.81 27.69L37.91 26.99L38.58 26.99C39.15 26.99 39.23 27.02 39.23 27.33C39.23 28.39 38.21 31.27 37.46 32.33C37.29 32.55 37.16 32.78 37.16 32.83C37.16 32.87 37.47 32.92 37.87 32.92C38.34 32.92 38.87 33.07 39.49 33.36C40.01 33.61 40.48 33.78 40.56 33.73C40.69 33.64 41.06 32.77 40.99 32.71C40.96 32.7 40.62 32.49 40.22 32.27C39.61 31.93 39.54 31.84 39.67 31.58C39.86 31.23 39.91 31.23 40.71 31.51C41.52 31.79 41.52 31.79 41.71 31.36C41.99 30.74 41.92 30.61 41.19 30.33C40.28 29.99 40.23 29.93 40.35 29.45C40.44 29.05 40.45 29.05 41.37 29.14C41.87 29.2 42.33 29.19 42.37 29.13C42.42 29.05 42.48 28.76 42.51 28.47L42.55 27.96L41.66 27.81C40.91 27.67 40.76 27.6 40.73 27.32C40.69 27.01 40.73 26.99 41.65 26.99L42.62 26.99L42.62 26.33L42.62 25.66L41.66 25.66L40.71 25.66L40.71 25.16C40.71 24.59 40.75 24.56 41.86 24.4L42.51 24.3L42.4 23.75C42.34 23.45 42.26 23.17 42.21 23.11C42.15 23.07 41.75 23.08 41.33 23.17C40.68 23.31 40.5 23.29 40.39 23.13C40.16 22.74 40.26 22.61 41.09 22.33C41.53 22.18 41.93 22.02 41.95 21.97C41.98 21.93 41.9 21.63 41.78 21.34L41.56 20.8L40.75 21.08C40.29 21.23 39.91 21.35 39.89 21.34C39.82 21.17 39.52 20.45 39.52 20.4C39.52 20.37 39.89 20.14 40.35 19.88C40.79 19.62 41.21 19.32 41.25 19.22C41.34 18.98 40.88 18.26 40.65 18.26C40.56 18.27 40.16 18.49 39.75 18.77C39.01 19.28 39.01 19.28 38.77 18.98C38.55 18.68 38.53 18.68 37.91 19.25L37.28 19.81L37.65 20.37C38.19 21.17 38.9 23.1 39.11 24.31C39.21 24.89 39.26 25.39 39.21 25.42C39.17 25.47 38.87 25.54 38.53 25.6L37.93 25.69L37.83 24.98C37.66 23.78 37.18 22.24 36.57 21.13L36.01 20.08L37.96 18.45C43.67 13.63 45.89 11.78 46.76 11.09L47.72 10.3L48.75 10.41C49.33 10.46 49.79 10.49 49.8 10.49C49.99 10.29 52.82 5.49 52.82 5.37C52.82 5.16 53.04 5.12 49.67 6.11L46.92 6.92L46.85 7.59C46.8 7.96 46.73 8.63 46.67 9.07L46.57 9.89L40.96 14.57L35.33 19.26L34.43 18.45C33.44 17.54 31.67 16.6 30.43 16.31C29.66 16.14 29.63 16.12 29.63 15.63C29.63 15.09 29.57 15.1 30.96 15.46C31.24 15.53 31.52 15.59 31.59 15.59C31.65 15.59 31.7 15.06 31.7 14.39C31.7 13.29 31.67 13.19 31.39 13.12C31.11 13.04 31.09 12.95 31.18 12.26L31.27 11.47L30.66 11.37C30.32 11.31 30.03 11.29 29.98 11.34C29.95 11.37 29.87 11.69 29.81 12.05C29.75 12.42 29.61 12.7 29.51 12.69C29.42 12.67 29.23 12.66 29.11 12.64C28.95 12.63 28.89 12.43 28.89 11.89L28.89 11.15L28.23 11.15L27.56 11.15L27.56 11.89C27.56 12.49 27.52 12.63 27.31 12.63C27.16 12.63 26.9 12.67 26.72 12.72C26.42 12.79 26.38 12.73 26.29 12.21C26.16 11.37 26.07 11.29 25.43 11.4L24.87 11.49L24.98 12.26C25.07 12.98 25.05 13.04 24.73 13.13C24.21 13.26 24.21 13.26 24.02 12.55C23.81 11.81 23.78 11.8 23.06 12.09L22.55 12.32L22.76 12.83C22.88 13.12 22.98 13.5 22.98 13.68C22.98 13.93 23.63 15.1 24.11 15.71C24.12 15.74 24.74 15.63 25.46 15.46C27.16 15.06 27.15 15.06 27.09 15.6C27.04 16.05 26.99 16.09 25.86 16.43C25.21 16.63 24.58 16.82 24.45 16.86C24.27 16.92 23.78 16.3 22.54 14.37C21.62 12.97 20.78 11.66 20.66 11.49C20.46 11.18 20.49 11.15 21.3 10.78C23.2 9.9 26.04 9.22 27.83 9.22L28.45 9.22L28.45 5.89L28.45 2.56L27.74 2.56L27.01 2.56L26.82 1.3C26.6 -0.15 26.78 -0.07 24.64 0.26C23.96 0.36 23.37 0.48 23.34 0.53ZM34.55 27.23C33.69 32.25 27.49 34.21 23.91 30.58C20.56 27.16 22.14 21.51 26.82 20.24C27.66 20 28.46 19.99 29.57 20.2C32.85 20.8 35.09 23.97 34.55 27.23Z" stroke="#FFFFFF" stroke-opacity="1.000000" stroke-width="0.133333"/>
	<path id="path" d="M27.41 21.83C25.69 22.39 24.62 23.93 24.8 25.61C25.01 27.61 26.38 28.87 28.37 28.87C29.14 28.87 29.56 28.79 30 28.55C32.6 27.16 32.61 23.45 30.03 22.11C29.38 21.79 28 21.64 27.41 21.83Z" fill="#FFFFFF" fill-opacity="1.000000" fill-rule="nonzero"/>
	<path id="path" d="M24.8 25.61C25.01 27.61 26.38 28.87 28.37 28.87C29.14 28.87 29.56 28.79 30 28.55C32.6 27.16 32.61 23.45 30.03 22.11C29.38 21.79 28 21.64 27.41 21.83C25.69 22.39 24.62 23.93 24.8 25.61Z" stroke="#FFFFFF" stroke-opacity="1.000000" stroke-width="0.133333"/>
	<path id="path" d="M36.73 14.1L36.14 14.8L35.76 14.44C35.57 14.25 35.36 14.11 35.33 14.16C35.3 14.19 35.09 14.6 34.87 15.09L34.46 15.95L35.11 16.53C35.46 16.84 35.8 17.09 35.85 17.11C36.1 17.12 37.28 16.02 37.21 15.83C37.16 15.73 37.37 15.36 37.66 15C37.96 14.66 38.19 14.31 38.19 14.2C38.19 14.1 38 13.88 37.77 13.71L37.34 13.4L36.73 14.1Z" fill="#FFFFFF" fill-opacity="1.000000" fill-rule="nonzero"/>
	<path id="path" d="M36.14 14.8L35.76 14.44C35.57 14.25 35.36 14.11 35.33 14.16C35.3 14.19 35.09 14.6 34.87 15.09L34.46 15.95L35.11 16.53C35.46 16.84 35.8 17.09 35.85 17.11C36.1 17.12 37.28 16.02 37.21 15.83C37.16 15.73 37.37 15.36 37.66 15C37.96 14.66 38.19 14.31 38.19 14.2C38.19 14.1 38 13.88 37.77 13.71L37.34 13.4L36.73 14.1L36.14 14.8Z" stroke="#FFFFFF" stroke-opacity="1.000000" stroke-width="0.133333"/>
	<path id="path" d="M18.17 14.5C17.9 14.71 17.9 14.74 18.38 15.21C18.91 15.77 18.95 15.95 18.63 16.22C18.4 16.4 18.33 16.37 17.43 15.7C17.3 15.61 17.12 15.67 16.85 15.92C16.65 16.11 16.49 16.34 16.49 16.43C16.5 16.51 16.75 16.78 17.06 17.03L17.62 17.48L17.34 18.04L17.06 18.6L16.38 18.23C16.01 18.03 15.66 17.85 15.58 17.85C15.51 17.85 15.35 18.05 15.23 18.31C14.95 18.85 15.05 19.02 15.89 19.4C16.5 19.67 16.59 19.83 16.35 20.22C16.23 20.39 16.1 20.39 15.38 20.16C14.92 20.01 14.52 19.92 14.51 19.95C14.4 20.1 14.12 20.84 14.12 20.94C14.12 21.02 14.52 21.21 15.02 21.39C15.69 21.64 15.89 21.77 15.84 21.95C15.79 22.07 15.75 22.26 15.75 22.39C15.75 22.59 15.58 22.6 14.73 22.51L13.72 22.41L13.62 22.88C13.47 23.68 13.5 23.73 14.24 23.83C15.27 23.98 15.45 24.07 15.45 24.36C15.45 24.62 15.32 24.65 14.46 24.69L13.46 24.73L13.41 25.36L13.37 25.99L14.4 25.99L15.44 25.99L15.53 26.69C15.67 27.79 15.66 27.77 16.62 27.77L17.49 27.77L17.34 27.13C17.11 26.11 17.28 23.12 17.67 21.92C18.15 20.38 18.92 19 19.91 17.92L20.8 16.96L20.16 16.1C19.45 15.15 18.69 14.29 18.55 14.29C18.51 14.29 18.33 14.38 18.17 14.5Z" fill="#FFFFFF" fill-opacity="1.000000" fill-rule="nonzero"/>
	<path id="path" d="M18.38 15.21C18.91 15.77 18.95 15.95 18.63 16.22C18.4 16.4 18.33 16.37 17.43 15.7C17.3 15.61 17.12 15.67 16.85 15.92C16.65 16.11 16.49 16.34 16.49 16.43C16.5 16.51 16.75 16.78 17.06 17.03L17.62 17.48L17.34 18.04L17.06 18.6L16.38 18.23C16.01 18.03 15.66 17.85 15.58 17.85C15.51 17.85 15.35 18.05 15.23 18.31C14.95 18.85 15.05 19.02 15.89 19.4C16.5 19.67 16.59 19.83 16.35 20.22C16.23 20.39 16.1 20.39 15.38 20.16C14.92 20.01 14.52 19.92 14.51 19.95C14.4 20.1 14.12 20.84 14.12 20.94C14.12 21.02 14.52 21.21 15.02 21.39C15.69 21.64 15.89 21.77 15.84 21.95C15.79 22.07 15.75 22.26 15.75 22.39C15.75 22.59 15.58 22.6 14.73 22.51L13.72 22.41L13.62 22.88C13.47 23.68 13.5 23.73 14.24 23.83C15.27 23.98 15.45 24.07 15.45 24.36C15.45 24.62 15.32 24.65 14.46 24.69L13.46 24.73L13.41 25.36L13.37 25.99L14.4 25.99L15.44 25.99L15.53 26.69C15.67 27.79 15.66 27.77 16.62 27.77L17.49 27.77L17.34 27.13C17.11 26.11 17.28 23.12 17.67 21.92C18.15 20.38 18.92 19 19.91 17.92L20.8 16.96L20.16 16.1C19.45 15.15 18.69 14.29 18.55 14.29C18.51 14.29 18.33 14.38 18.17 14.5C17.9 14.71 17.9 14.74 18.38 15.21Z" stroke="#FFFFFF" stroke-opacity="1.000000" stroke-width="0.133333"/>
	<path id="PRO Детали" d="M118.46 33.91Q119.44 31.79 119.44 28.96L119.44 27.9Q119.43 25.09 118.44 22.97Q117.67 21.34 116.42 20.3Q116.05 19.99 115.64 19.73Q115.28 19.51 114.91 19.33Q113.37 18.6 111.48 18.6Q109.62 18.6 108.1 19.31Q107.7 19.5 107.32 19.74Q106.96 19.97 106.63 20.23Q105.31 21.31 104.51 23.03Q103.51 25.18 103.51 27.99L103.51 29.07Q103.53 31.82 104.52 33.93Q105.27 35.51 106.47 36.55Q106.88 36.9 107.34 37.18Q107.78 37.46 108.25 37.67Q109.73 38.32 111.5 38.32Q113.41 38.32 114.96 37.58Q115.33 37.4 115.67 37.18Q116.1 36.92 116.47 36.6Q117.71 35.55 118.46 33.91ZM73.35 38.06L73.35 30.93L77.32 30.93Q80.65 30.93 82.5 29.36Q83.05 28.9 83.43 28.33Q84.36 26.96 84.36 24.97Q84.36 23.24 83.61 21.94Q83.17 21.16 82.47 20.54Q82.34 20.43 82.21 20.33Q80.36 18.87 77.36 18.87L70.01 18.87L70.01 38.06L73.35 38.06ZM90.61 30.66L94.32 30.66L98.17 38.06L101.75 38.06L101.75 37.89L97.43 29.89Q98.91 29.27 99.81 28.17Q99.92 28.03 100.03 27.89Q100.06 27.84 100.1 27.78Q100.96 26.51 100.96 24.67Q100.96 22.56 99.95 21.2Q99.61 20.73 99.15 20.36Q97.34 18.87 94.02 18.87L87.27 18.87L87.27 38.06L90.61 38.06L90.61 30.66ZM114.9 23.07Q116.1 24.77 116.1 27.96L116.1 28.96Q116.1 32.21 114.91 33.89Q114.41 34.6 113.73 35.01Q112.79 35.58 111.5 35.58Q110.33 35.58 109.43 35.08Q108.65 34.66 108.08 33.86Q106.85 32.13 106.85 28.96L106.85 27.86Q106.87 24.76 108.09 23.06Q108.65 22.29 109.41 21.87Q110.3 21.37 111.48 21.37Q112.74 21.37 113.68 21.93Q114.38 22.34 114.9 23.07ZM77.36 28.25L73.35 28.25L73.35 21.55L77.45 21.55Q78.9 21.58 79.81 22.29Q79.94 22.4 80.06 22.51Q80.29 22.74 80.47 23.01Q81.01 23.82 81.01 25Q81.01 26.3 80.37 27.1Q80.24 27.27 80.07 27.41Q79.14 28.25 77.36 28.25ZM94.03 27.99L90.61 27.99L90.61 21.55L94.13 21.55Q95.87 21.58 96.74 22.42Q96.87 22.55 96.97 22.68Q97.62 23.49 97.62 24.81Q97.62 25.87 97.13 26.6Q96.94 26.9 96.67 27.14Q96.65 27.15 96.64 27.17Q95.69 27.99 94.03 27.99Z" fill="#CC5722" fill-opacity="1.000000" fill-rule="evenodd"/>
	<path id="PRO Детали" d="M143.97 42.78L147.14 42.78L147.31 35.4L144.87 35.4L144.87 18.87L132.77 18.87L132.27 27.38Q132.07 30.06 131.38 32.17Q130.7 34.29 129.55 35.4L128.01 35.4L128.11 42.78L131.33 42.78L131.33 38.06L143.97 38.06L143.97 42.78ZM141.55 35.4L133.32 35.4Q135.27 32.38 135.63 26.96L135.94 21.55L141.55 21.55L141.55 35.4ZM152.08 37.38Q153.65 38.32 155.79 38.32Q157.57 38.32 159 37.62Q159.9 37.17 160.58 36.5Q160.97 36.11 161.28 35.63L159.56 33.99Q158.82 34.93 157.86 35.38Q157 35.77 155.97 35.77Q154.99 35.77 154.22 35.37Q153.76 35.13 153.37 34.74Q153.24 34.61 153.13 34.48Q152.31 33.5 152.19 31.94L161.51 31.94L161.51 30.65Q161.51 27.25 159.92 25.39Q159.51 24.91 159.01 24.55Q157.58 23.53 155.42 23.53Q154.26 23.53 153.24 23.91Q152.64 24.12 152.09 24.47Q151.65 24.74 151.27 25.09Q150.36 25.9 149.78 27.09Q148.96 28.77 148.96 30.9L148.96 31.3Q148.96 33.79 150.11 35.5Q150.43 35.99 150.85 36.41Q151.41 36.98 152.08 37.38ZM185.15 36.73Q185.3 37.65 185.52 38.06L188.78 38.06L188.78 37.84Q188.24 36.69 188.24 34.76L188.24 28.33Q188.22 26.68 187.43 25.57Q187.13 25.14 186.71 24.79Q186.67 24.76 186.63 24.72Q185.16 23.53 182.72 23.53Q181.07 23.53 179.73 24.11Q178.44 24.67 177.67 25.65Q177.64 25.68 177.62 25.71Q177.06 26.45 176.9 27.26Q176.84 27.58 176.84 27.91L180.04 27.91Q180.04 27.54 180.18 27.23Q180.35 26.83 180.74 26.52Q180.78 26.49 180.81 26.46Q181.5 25.97 182.54 25.97Q183.74 25.97 184.36 26.57Q184.39 26.6 184.42 26.64Q184.52 26.74 184.6 26.85Q185.04 27.47 185.04 28.41L185.04 29.35L183.08 29.35Q179.93 29.35 178.23 30.57Q177.56 31.05 177.16 31.69Q176.54 32.68 176.54 34.07Q176.54 34.93 176.85 35.67Q177.19 36.46 177.89 37.1Q178.17 37.35 178.47 37.54Q179.69 38.32 181.4 38.32Q182.52 38.32 183.46 37.92Q184.39 37.52 185.15 36.73ZM170.45 26.34L175.07 26.34L175.07 23.8L162.67 23.8L162.67 26.34L167.24 26.34L167.24 38.06L170.45 38.06L170.45 26.34ZM203.72 38.06L203.72 23.8L193.46 23.8L193.2 29.89Q193.07 32.91 192.59 34.05Q192.27 34.79 191.72 35.11Q191.42 35.28 191.05 35.33L190.39 35.4L190.41 38.06L191.39 38.06Q193.06 38.06 194.11 37.26Q194.52 36.94 194.84 36.5Q195.97 34.94 196.22 31.35L196.48 26.38L200.52 26.38L200.52 38.06L203.72 38.06ZM219.23 23.8L216.04 23.8L210.45 33.31L210.45 23.8L207.25 23.8L207.25 38.06L210.45 38.06L216.04 28.54L216.04 38.06L219.23 38.06L219.23 23.8ZM154 26.44Q154.61 26.1 155.4 26.1Q156.42 26.1 157.09 26.58Q157.31 26.73 157.49 26.93Q158.24 27.75 158.34 29.36L158.34 29.6L152.24 29.6Q152.46 27.95 153.27 27.03Q153.6 26.66 154 26.44ZM182.87 35.65Q182.44 35.75 182 35.75Q181.06 35.75 180.47 35.31Q180.41 35.26 180.35 35.21Q180.15 35.03 180.02 34.81Q179.74 34.36 179.74 33.74Q179.74 33.12 180.01 32.65Q180.23 32.26 180.64 31.98Q181.53 31.36 183.31 31.36L185.04 31.36L185.04 34.05Q184.93 34.26 184.79 34.44Q184.4 34.95 183.78 35.29Q183.34 35.54 182.87 35.65Z" fill="#FFFFFF" fill-opacity="1.000000" fill-rule="evenodd"/>
</svg>
