<svg width="41.012207" height="22.097168" viewBox="0 0 41.0122 22.0972" fill="none" xmlns="http://www.w3.org/2000/svg" xmlns:xlink="http://www.w3.org/1999/xlink">
	<desc>
			Created with Pixso.
	</desc>
	<defs/>
	<path id="path" d="M12.06 9.94L15.23 13.11L13.11 15.23L9.94 12.06L12.06 9.94ZM40.56 2.56L21.56 21.56C20.92 22.21 20.24 22.24 19.54 21.65L15.74 18.49L17.66 16.18L21.46 19.35L20.5 20.5L19.44 19.44L38.44 0.44L40.56 2.56ZM9.97 12.06L9.94 12.06C9.35 11.47 9.35 10.53 9.94 9.94C10.53 9.35 11.47 9.35 12.06 9.94L12.06 9.97L9.97 12.06ZM15.2 13.11L15.23 13.11C15.82 13.7 15.82 14.63 15.23 15.23C14.63 15.82 13.7 15.82 13.11 15.23L13.11 15.2L15.2 13.11ZM38.44 0.47L38.44 0.44C39.03 -0.15 39.97 -0.15 40.56 0.44C41.16 1.03 41.16 1.97 40.56 2.56L40.53 2.56L38.44 0.47ZM15.77 18.48L15.74 18.49C15.1 17.95 15.01 17.02 15.55 16.37C16.09 15.73 17.02 15.64 17.66 16.18L17.66 16.21L15.77 18.48Z" fill="#CC5722" fill-opacity="1.000000" fill-rule="evenodd"/>
	<path id="path" d="M2.56 9.94L12.06 19.44L11 20.5L9.94 19.44L28.94 0.44L31.06 2.56L12.06 21.56C11.35 22.27 10.65 22.27 9.94 21.56L0.44 12.06L2.56 9.94ZM0.47 12.06L0.44 12.06C-0.15 11.47 -0.15 10.53 0.44 9.94C1.03 9.35 1.97 9.35 2.56 9.94L2.56 9.97L0.47 12.06ZM28.94 0.47L28.94 0.44C29.53 -0.15 30.47 -0.15 31.06 0.44C31.66 1.03 31.66 1.97 31.06 2.56L31.03 2.56L28.94 0.47Z" fill="#CC5722" fill-opacity="1.000000" fill-rule="evenodd"/>
</svg>
