<svg width="333.691406" height="53.730469" viewBox="0 0 333.691 53.7305" fill="none" xmlns="http://www.w3.org/2000/svg" xmlns:xlink="http://www.w3.org/1999/xlink">
	<desc>
			Created with Pixso.
	</desc>
	<defs/>
	<path id="PRO Детали" d="M109.8 33.92Q112.03 29.17 112.03 22.88L112.03 20.97Q112.03 14.7 109.76 9.91Q108.04 6.29 105.25 3.94Q104.35 3.18 103.34 2.56Q102.48 2.03 101.57 1.61Q98.09 0 93.86 0Q89.63 0 86.15 1.61Q85.24 2.03 84.38 2.56Q83.37 3.18 82.48 3.94Q79.69 6.29 77.97 9.91Q75.7 14.7 75.7 21L75.7 23.11Q75.73 29.26 78.01 33.99Q79.68 37.45 82.35 39.74Q83.33 40.59 84.46 41.27Q85.39 41.84 86.37 42.29Q89.8 43.82 93.92 43.82Q98.22 43.82 101.74 42.16Q102.61 41.75 103.43 41.25Q104.6 40.52 105.62 39.62Q108.2 37.33 109.8 33.92ZM8.78 43.24L8.78 28.21L16.49 28.21Q24.08 28.21 28.37 24.59Q29.86 23.33 30.83 21.76Q32.66 18.8 32.66 14.7Q32.66 11.42 31.42 8.71Q31.1 8 30.7 7.33Q30.12 6.38 29.39 5.55Q27.66 3.58 25.09 2.34Q21.44 0.58 16.64 0.58L0 0.58L0 43.24L8.78 43.24ZM47.49 27.62L54.49 27.62L62.49 43.24L71.92 43.24L71.92 42.83L62.69 25.4Q66.53 23.67 68.42 20.75Q70.31 17.84 70.31 13.47Q70.31 9.18 68.32 6.25Q67.45 4.97 66.21 3.95Q62.1 0.58 54.55 0.58L38.7 0.58L38.7 43.24L47.49 43.24L47.49 27.62ZM100.72 10.75Q103.12 14.23 103.12 20.94L103.12 23.02Q103.09 29.67 100.72 33.14Q99.67 34.68 98.22 35.54Q96.39 36.62 93.92 36.62Q91.46 36.62 89.62 35.54Q88.1 34.65 87.01 33.01Q84.6 29.41 84.6 22.88L84.6 20.8Q84.63 14.15 87.04 10.7Q88.09 9.19 89.53 8.34Q91.38 7.26 93.86 7.26Q96.35 7.26 98.19 8.35Q99.66 9.21 100.72 10.75ZM16.64 21.09L8.78 21.09L8.78 7.7L16.84 7.7Q19.48 7.75 21.2 9.03Q21.59 9.33 21.94 9.69Q22.35 10.12 22.67 10.62Q23.78 12.33 23.78 14.76Q23.78 17.21 22.6 18.75Q22.31 19.13 21.95 19.45Q20.12 21.09 16.64 21.09ZM54.58 20.5L47.49 20.5L47.49 7.7L54.55 7.7Q58.09 7.7 59.8 9.43Q60.07 9.7 60.29 9.99Q61.52 11.62 61.52 14.17Q61.52 16.44 60.45 17.96Q60.13 18.42 59.7 18.82Q59.66 18.86 59.61 18.9Q57.8 20.5 54.58 20.5Z" fill="#CC5722" fill-opacity="1.000000" fill-rule="evenodd"/>
	<path id="PRO Детали" d="M164.79 53.73L172.91 53.73L173.61 36.18L168.63 36.18L168.63 0.58L140.68 0.58L139.45 19.39Q138.95 25.6 137.53 29.8Q136.11 34.01 133.5 36.18L130.28 36.18L130.75 53.7L139.07 53.7L139.07 43.24L164.79 43.24L164.79 53.73ZM159.84 36.18L143.58 36.18Q147.42 30.2 148.3 18.92L149.03 7.7L159.84 7.7L159.84 36.18ZM183.52 41.59Q187.2 43.82 192.24 43.82Q196.2 43.82 199.45 42.31Q202.06 41.1 203.81 39.12Q204.23 38.64 204.6 38.11L200.44 33.45Q199.37 34.83 197.97 35.68Q195.78 37 192.8 37Q190.47 37 188.74 35.98Q188.11 35.62 187.57 35.12Q187.03 34.63 186.6 34.06Q185.4 32.44 185.09 30.14L205.28 30.14L205.28 26.68Q205.28 19.16 201.54 15.05Q200.55 13.97 199.37 13.17Q196.09 10.95 191.3 10.95Q187.76 10.95 184.85 12.31Q184.2 12.62 183.58 12.99Q182.52 13.63 181.61 14.44Q179.62 16.21 178.35 18.79Q176.51 22.55 176.51 27.33L176.51 28.15Q176.51 33.43 178.92 37.15Q179.76 38.44 180.89 39.55Q182.1 40.73 183.52 41.59ZM257.37 40.4Q257.63 42.09 258.22 43.24L266.77 43.24L266.77 42.74Q265.54 40.42 265.51 35.91L265.51 22.17Q265.51 18.31 263.7 15.69Q263.02 14.7 262.07 13.9Q261.99 13.83 261.9 13.76Q258.49 10.95 252.77 10.95Q248.9 10.95 245.8 12.29Q242.69 13.62 240.99 15.96Q239.92 17.44 239.52 19.08Q239.29 20.04 239.29 21.06L247.76 21.06Q247.76 19.88 248.29 19.03Q248.56 18.59 248.97 18.25Q250.19 17.22 252.33 17.22Q254.57 17.22 255.71 18.34Q255.8 18.44 255.89 18.54Q255.95 18.61 256.01 18.69Q257.02 19.98 257.02 22.06L257.02 23.87L253.12 23.87Q246.06 23.9 242.32 26.6Q240.86 27.65 239.97 29.07Q238.59 31.27 238.59 34.33Q238.59 36.42 239.38 38.14Q240.14 39.8 241.65 41.13Q242.39 41.78 243.23 42.28Q245.84 43.82 249.37 43.82Q252.32 43.82 254.61 42.59Q256.14 41.77 257.37 40.4ZM225.9 18.33L236.07 18.33L236.07 11.54L207.42 11.54L207.42 18.33L217.41 18.33L217.41 43.24L225.9 43.24L225.9 18.33ZM299.59 43.24L299.59 11.54L275.71 11.54L275.12 24.99Q274.86 31.05 273.8 33.57Q273.11 35.23 271.89 35.87Q271.25 36.2 270.46 36.26L269.41 36.35L269.5 43.24L272.37 43.24Q275.82 43.18 278.12 41.52Q279.21 40.73 280.04 39.58Q282.62 36 283.12 28.18L283.65 18.39L291.12 18.39L291.12 43.24L299.59 43.24ZM333.69 11.54L325.22 11.54L314.61 31.08L314.61 11.54L306.12 11.54L306.12 43.24L314.61 43.24L325.22 23.67L325.22 43.24L333.69 43.24L333.69 11.54ZM188.47 18.49Q189.68 17.81 191.27 17.81Q193.58 17.81 194.98 18.93Q195.22 19.12 195.43 19.35Q195.48 19.39 195.52 19.43Q196.9 20.96 196.96 23.7L196.96 24.37L185.18 24.37Q185.62 21.21 187.19 19.51Q187.76 18.88 188.47 18.49ZM253.7 36.94Q252.53 37.35 251.22 37.35Q249.44 37.35 248.35 36.48Q248.26 36.41 248.17 36.32Q247.69 35.88 247.42 35.33Q247.06 34.62 247.06 33.72L247.09 33.22Q247.21 31.86 247.9 30.92Q249.46 28.82 253.85 28.82L257.02 28.82L257.02 34.27Q256.88 34.52 256.72 34.76Q255.97 35.83 254.67 36.51Q254.2 36.76 253.7 36.94Z" fill="#FFFFFF" fill-opacity="1.000000" fill-rule="evenodd"/>
</svg>
