<svg width="381.066895" height="83.035583" viewBox="0 0 381.067 83.0356" fill="none" xmlns="http://www.w3.org/2000/svg" xmlns:xlink="http://www.w3.org/1999/xlink">
	<desc>
			Created with Pixso.
	</desc>
	<defs/>
	<path id="path" d="M39.48 0.38C38.39 0.54 37.44 0.73 37.39 0.8C37.32 0.85 37.39 1.58 37.53 2.41C37.67 3.24 37.82 4.11 37.84 4.37C37.89 4.73 37.58 4.89 36.23 5.25C33.1 6.1 33.44 6.22 32.8 4.18C32.49 3.19 32.13 2.39 32.01 2.39C31.35 2.39 27.11 3.88 27.11 4.11C27.11 4.28 27.37 5.13 27.7 6.05C28.01 6.95 28.3 7.82 28.3 7.97C28.3 8.18 24.96 10.43 24.62 10.43C24.55 10.43 23.8 9.67 22.94 8.77C22.07 7.85 21.31 7.12 21.21 7.12C21.14 7.12 20.2 7.87 19.11 8.79L17.14 10.47L18.73 12.25L20.31 14L18.7 15.63L17.09 17.23L15.48 15.96C14.61 15.25 13.82 14.68 13.78 14.68C13.73 14.68 12.9 15.6 11.95 16.71C10.51 18.42 10.27 18.82 10.56 19.03C12.38 20.4 13.85 21.58 13.85 21.68C13.85 21.8 11.98 25.32 11.79 25.53C11.74 25.6 10.82 25.34 9.7 24.96C8.61 24.59 7.67 24.33 7.62 24.4C7.22 24.85 5.75 29.15 5.94 29.31C6.06 29.43 6.91 29.76 7.81 30.05C8.73 30.33 9.54 30.64 9.61 30.73C9.77 30.87 8.87 34.87 8.64 35.08C8.57 35.15 7.67 35.06 6.65 34.87C5.61 34.7 4.73 34.59 4.68 34.63C4.63 34.66 4.35 35.84 4.04 37.23C3.66 39.01 3.57 39.81 3.76 39.86C3.9 39.9 4.78 40.07 5.68 40.21C8.23 40.64 8.16 40.59 8.16 41.65L8.16 42.58L13.26 42.58L18.35 42.58L18.35 41.2C18.37 35.89 20.53 29.76 23.91 25.32C25.05 23.85 27.87 20.95 28.51 20.61C28.86 20.43 29.29 20.95 31.52 24.3C32.94 26.45 34.31 28.58 34.55 29.01L35 29.76L33.91 31.02C32.56 32.58 31.35 34.8 30.64 37.14C30.17 38.6 30.07 39.43 30.1 41.87C30.1 43.5 30.21 45.25 30.38 45.77C30.59 46.48 30.59 46.74 30.36 46.88C30.21 46.97 23.37 49.29 15.17 52.03C6.96 54.75 0.16 57.09 0.06 57.19C-0.03 57.28 6.81 55.06 15.32 52.22C23.8 49.38 30.76 47.09 30.78 47.14C30.81 47.16 31 47.68 31.21 48.27C31.45 48.86 31.99 49.93 32.44 50.64C34.03 53.14 34.45 52.29 28.63 58.27C23.75 63.31 23.32 63.69 20.74 65.25L17.99 66.9L17.42 69.81C17.12 71.42 16.76 72.91 16.64 73.12C16.52 73.36 16.5 73.54 16.6 73.54C16.69 73.54 18.13 72.84 19.84 71.94L22.92 70.35L24.01 68.08C25.07 65.86 25.24 65.65 30.26 60.52C33.1 57.61 35.59 55.13 35.78 55.03C35.99 54.92 36.4 55.06 36.89 55.41C38.55 56.69 41.04 57.66 43.53 58.06C44.26 58.18 44.4 58.3 44.4 58.77C44.4 59.1 44.26 59.36 44.12 59.36C43.5 59.34 40.66 58.89 40.28 58.75C39.95 58.63 39.9 58.84 39.9 60.61C39.9 62.41 39.95 62.65 40.35 62.79C40.73 62.91 40.8 63.07 40.66 63.8C40.37 65.51 40.42 65.6 41.44 65.77C41.96 65.86 42.46 65.89 42.53 65.84C42.63 65.79 42.74 65.22 42.84 64.56C42.98 63.5 43.05 63.38 43.57 63.38C44.14 63.38 44.16 63.45 44.16 64.68L44.16 65.98L45.35 65.98L46.53 65.98L46.53 64.68C46.53 63.5 46.58 63.38 47.13 63.24C48.05 63 48.36 63.26 48.52 64.42C48.69 65.46 48.74 65.51 49.45 65.51C50.65 65.51 50.8 65.29 50.51 63.99C50.28 62.81 50.37 62.53 51.1 62.39C51.44 62.34 51.65 62.6 51.98 63.47C52.24 64.09 52.48 64.66 52.53 64.7C52.62 64.8 54.35 64.14 54.35 63.99C54.35 63.97 54.14 63.33 53.9 62.6C53.57 61.65 53.52 61.25 53.71 61.18C54.04 61.06 52.76 58.44 52.31 58.25C52.15 58.2 51.29 58.37 50.42 58.63C49.52 58.86 48.43 59.15 48.03 59.22C47.29 59.34 47.24 59.29 47.24 58.7C47.24 58.11 47.36 58.04 48.93 57.66C49.87 57.42 51.03 57.04 51.53 56.76L52.45 56.29L55.15 60.4C58.78 65.91 58.57 65.37 57.38 65.98C55.23 67.09 50.32 68.58 48.74 68.58L47.95 68.58L47.95 74.21L47.95 79.83L49.8 79.62C50.8 79.5 51.98 79.38 52.43 79.38C53.31 79.34 53.26 79.27 53.97 82.32L54.11 82.95L56.65 82.48C58.04 82.24 59.23 81.98 59.3 81.94C59.35 81.87 59.2 80.92 58.97 79.79C58.73 78.63 58.64 77.68 58.75 77.59C58.87 77.49 59.77 77.02 60.77 76.57L62.59 75.72L63.97 77.59C64.72 78.6 65.43 79.45 65.55 79.45C66.03 79.45 69.96 76.55 69.82 76.31C69.72 76.17 69.15 75.36 68.51 74.54C67.9 73.69 67.38 72.93 67.38 72.86C67.38 72.76 68.13 72.08 69.06 71.32L70.74 69.95L72.26 71.44L73.79 72.91L74.79 71.98C75.33 71.49 76.23 70.64 76.8 70.12L77.8 69.19L76.14 67.52L74.48 65.84L75.67 64.21C76.31 63.31 76.87 62.48 76.92 62.36C76.94 62.24 77.82 62.53 78.84 63C79.86 63.47 80.83 63.85 80.97 63.85C81.18 63.85 83.48 59.64 83.48 59.27C83.48 59.22 82.63 58.77 81.59 58.27C80.55 57.8 79.69 57.33 79.69 57.26C79.69 57.19 80 56.31 80.38 55.34C80.76 54.37 81.11 53.28 81.21 52.91L81.35 52.27L75.78 52.27L70.22 52.27L69.86 53.12C69.37 54.33 67.94 56.64 66.74 58.23C65.65 59.67 62.69 62.67 62.35 62.67C62.24 62.67 61.55 61.75 60.82 60.61C60.08 59.46 58.75 57.45 57.85 56.1C56.98 54.77 56.24 53.62 56.24 53.54C56.24 53.5 56.67 52.88 57.22 52.22C58.87 50.12 60.2 47 60.6 44.16L60.77 43.05L61.83 43.05C62.76 43.05 62.88 43.1 62.88 43.59C62.88 45.27 61.24 49.88 60.03 51.56C59.77 51.91 59.56 52.29 59.56 52.36C59.56 52.43 60.06 52.5 60.7 52.5C61.45 52.5 62.31 52.74 63.3 53.21C64.13 53.62 64.89 53.88 65.01 53.81C65.22 53.66 65.81 52.27 65.69 52.17C65.65 52.15 65.1 51.82 64.46 51.46C63.49 50.92 63.37 50.78 63.59 50.38C63.89 49.81 63.97 49.81 65.24 50.26C66.55 50.71 66.55 50.71 66.85 50.02C67.31 49.03 67.19 48.82 66.03 48.37C64.56 47.82 64.49 47.73 64.68 46.97C64.82 46.33 64.84 46.33 66.31 46.48C67.12 46.57 67.85 46.55 67.92 46.45C67.99 46.33 68.09 45.86 68.13 45.41L68.21 44.59L66.78 44.35C65.58 44.14 65.34 44.02 65.29 43.57C65.22 43.07 65.29 43.05 66.76 43.05L68.32 43.05L68.32 41.98L68.32 40.92L66.78 40.92L65.24 40.92L65.24 40.12C65.24 39.22 65.32 39.17 67.09 38.91L68.13 38.75L67.97 37.87C67.87 37.4 67.73 36.95 67.66 36.86C67.57 36.78 66.93 36.81 66.24 36.95C65.2 37.16 64.91 37.14 64.75 36.88C64.37 36.26 64.53 36.05 65.86 35.6C66.57 35.37 67.21 35.11 67.23 35.03C67.28 34.96 67.16 34.49 66.97 34.02L66.62 33.17L65.32 33.62C64.58 33.85 63.97 34.04 63.94 34.02C63.82 33.76 63.35 32.6 63.35 32.53C63.35 32.48 63.94 32.1 64.68 31.7C65.39 31.28 66.05 30.8 66.12 30.64C66.26 30.26 65.53 29.1 65.15 29.1C65.01 29.12 64.37 29.48 63.7 29.93C62.52 30.73 62.52 30.73 62.14 30.26C61.79 29.79 61.76 29.79 60.77 30.68L59.75 31.58L60.34 32.48C61.22 33.76 62.35 36.83 62.69 38.77C62.85 39.69 62.92 40.5 62.85 40.54C62.78 40.61 62.31 40.73 61.76 40.83L60.79 40.97L60.63 39.83C60.37 37.92 59.58 35.46 58.61 33.69L57.71 32.01L60.84 29.41C70.01 21.73 73.56 18.77 74.96 17.66L76.49 16.41L78.15 16.57C79.08 16.67 79.81 16.71 79.83 16.71C80.14 16.38 84.67 8.72 84.67 8.53C84.67 8.2 85.02 8.13 79.62 9.72L75.22 11.02L75.1 12.08C75.03 12.67 74.91 13.73 74.81 14.44L74.65 15.74L65.65 23.21L56.62 30.71L55.18 29.41C53.59 27.97 50.75 26.45 48.76 26C47.53 25.72 47.48 25.7 47.48 24.92C47.48 24.04 47.39 24.07 49.61 24.63C50.06 24.75 50.51 24.85 50.63 24.85C50.73 24.85 50.8 23.99 50.8 22.93C50.8 21.18 50.75 21.02 50.3 20.9C49.85 20.78 49.83 20.64 49.97 19.53L50.11 18.27L49.14 18.11C48.59 18.01 48.12 17.99 48.05 18.06C48 18.11 47.86 18.63 47.76 19.2C47.67 19.79 47.46 20.24 47.29 20.21C47.15 20.19 46.84 20.17 46.65 20.14C46.39 20.12 46.3 19.81 46.3 18.94L46.3 17.75L45.23 17.75L44.16 17.75L44.16 18.94C44.16 19.91 44.09 20.12 43.76 20.12C43.53 20.12 43.1 20.19 42.81 20.26C42.34 20.38 42.27 20.28 42.13 19.46C41.91 18.11 41.77 17.99 40.75 18.16L39.85 18.3L40.02 19.53C40.16 20.69 40.14 20.78 39.62 20.92C38.79 21.13 38.79 21.13 38.48 20C38.15 18.82 38.1 18.79 36.94 19.27L36.14 19.62L36.47 20.45C36.66 20.9 36.82 21.51 36.82 21.8C36.82 22.2 37.86 24.07 38.62 25.03C38.65 25.08 39.64 24.92 40.8 24.63C43.53 23.99 43.5 23.99 43.41 24.87C43.34 25.58 43.24 25.65 41.44 26.19C40.4 26.5 39.38 26.81 39.17 26.88C38.88 26.97 38.1 25.98 36.11 22.91C34.64 20.66 33.29 18.58 33.1 18.3C32.77 17.8 32.82 17.75 34.12 17.16C37.18 15.77 41.73 14.68 44.59 14.68L45.59 14.68L45.59 9.36L45.59 4.04L44.45 4.04L43.29 4.04L42.98 2.03C42.63 -0.28 42.91 -0.14 39.48 0.38ZM47.39 32.2C52.64 33.17 56.24 38.23 55.37 43.43C53.99 51.44 44.05 54.56 38.31 48.77C32.94 43.31 35.47 34.3 42.98 32.27C44.33 31.89 45.61 31.87 47.39 32.2Z" fill="#0F2346" fill-opacity="1.000000" fill-rule="nonzero"/>
	<path id="path" d="M37.39 0.8C37.32 0.85 37.39 1.58 37.53 2.41C37.67 3.24 37.82 4.11 37.84 4.37C37.89 4.73 37.58 4.89 36.23 5.25C33.1 6.1 33.44 6.22 32.8 4.18C32.49 3.19 32.13 2.39 32.01 2.39C31.35 2.39 27.11 3.88 27.11 4.11C27.11 4.28 27.37 5.13 27.7 6.05C28.01 6.95 28.3 7.82 28.3 7.97C28.3 8.18 24.96 10.43 24.62 10.43C24.55 10.43 23.8 9.67 22.94 8.77C22.07 7.85 21.31 7.12 21.21 7.12C21.14 7.12 20.2 7.87 19.11 8.79L17.14 10.47L18.73 12.25L20.31 14L18.7 15.63L17.09 17.23L15.48 15.96C14.61 15.25 13.82 14.68 13.78 14.68C13.73 14.68 12.9 15.6 11.95 16.71C10.51 18.42 10.27 18.82 10.56 19.03C12.38 20.4 13.85 21.58 13.85 21.68C13.85 21.8 11.98 25.32 11.79 25.53C11.74 25.6 10.82 25.34 9.7 24.96C8.61 24.59 7.67 24.33 7.62 24.4C7.22 24.85 5.75 29.15 5.94 29.31C6.06 29.43 6.91 29.76 7.81 30.05C8.73 30.33 9.54 30.64 9.61 30.73C9.77 30.87 8.87 34.87 8.64 35.08C8.57 35.15 7.67 35.06 6.65 34.87C5.61 34.7 4.73 34.59 4.68 34.63C4.63 34.66 4.35 35.84 4.04 37.23C3.66 39.01 3.57 39.81 3.76 39.86C3.9 39.9 4.78 40.07 5.68 40.21C8.23 40.64 8.16 40.59 8.16 41.65L8.16 42.58L13.26 42.58L18.35 42.58L18.35 41.2C18.37 35.89 20.53 29.76 23.91 25.32C25.05 23.85 27.87 20.95 28.51 20.61C28.86 20.43 29.29 20.95 31.52 24.3C32.94 26.45 34.31 28.58 34.55 29.01L35 29.76L33.91 31.02C32.56 32.58 31.35 34.8 30.64 37.14C30.17 38.6 30.07 39.43 30.1 41.87C30.1 43.5 30.21 45.25 30.38 45.77C30.59 46.48 30.59 46.74 30.36 46.88C30.21 46.97 23.37 49.29 15.17 52.03C6.96 54.75 0.16 57.09 0.06 57.19C-0.03 57.28 6.81 55.06 15.32 52.22C23.8 49.38 30.76 47.09 30.78 47.14C30.81 47.16 31 47.68 31.21 48.27C31.45 48.86 31.99 49.93 32.44 50.64C34.03 53.14 34.45 52.29 28.63 58.27C23.75 63.31 23.32 63.69 20.74 65.25L17.99 66.9L17.42 69.81C17.12 71.42 16.76 72.91 16.64 73.12C16.52 73.36 16.5 73.54 16.6 73.54C16.69 73.54 18.13 72.84 19.84 71.94L22.92 70.35L24.01 68.08C25.07 65.86 25.24 65.65 30.26 60.52C33.1 57.61 35.59 55.13 35.78 55.03C35.99 54.92 36.4 55.06 36.89 55.41C38.55 56.69 41.04 57.66 43.53 58.06C44.26 58.18 44.4 58.3 44.4 58.77C44.4 59.1 44.26 59.36 44.12 59.36C43.5 59.34 40.66 58.89 40.28 58.75C39.95 58.63 39.9 58.84 39.9 60.61C39.9 62.41 39.95 62.65 40.35 62.79C40.73 62.91 40.8 63.07 40.66 63.8C40.37 65.51 40.42 65.6 41.44 65.77C41.96 65.86 42.46 65.89 42.53 65.84C42.63 65.79 42.74 65.22 42.84 64.56C42.98 63.5 43.05 63.38 43.57 63.38C44.14 63.38 44.16 63.45 44.16 64.68L44.16 65.98L45.35 65.98L46.53 65.98L46.53 64.68C46.53 63.5 46.58 63.38 47.13 63.24C48.05 63 48.36 63.26 48.52 64.42C48.69 65.46 48.74 65.51 49.45 65.51C50.65 65.51 50.8 65.29 50.51 63.99C50.28 62.81 50.37 62.53 51.1 62.39C51.44 62.34 51.65 62.6 51.98 63.47C52.24 64.09 52.48 64.66 52.53 64.7C52.62 64.8 54.35 64.14 54.35 63.99C54.35 63.97 54.14 63.33 53.9 62.6C53.57 61.65 53.52 61.25 53.71 61.18C54.04 61.06 52.76 58.44 52.31 58.25C52.15 58.2 51.29 58.37 50.42 58.63C49.52 58.86 48.43 59.15 48.03 59.22C47.29 59.34 47.24 59.29 47.24 58.7C47.24 58.11 47.36 58.04 48.93 57.66C49.87 57.42 51.03 57.04 51.53 56.76L52.45 56.29L55.15 60.4C58.78 65.91 58.57 65.37 57.38 65.98C55.23 67.09 50.32 68.58 48.74 68.58L47.95 68.58L47.95 74.21L47.95 79.83L49.8 79.62C50.8 79.5 51.98 79.38 52.43 79.38C53.31 79.34 53.26 79.27 53.97 82.32L54.11 82.95L56.65 82.48C58.04 82.24 59.23 81.98 59.3 81.94C59.35 81.87 59.2 80.92 58.97 79.79C58.73 78.63 58.64 77.68 58.75 77.59C58.87 77.49 59.77 77.02 60.77 76.57L62.59 75.72L63.97 77.59C64.72 78.6 65.43 79.45 65.55 79.45C66.03 79.45 69.96 76.55 69.82 76.31C69.72 76.17 69.15 75.36 68.51 74.54C67.9 73.69 67.38 72.93 67.38 72.86C67.38 72.76 68.13 72.08 69.06 71.32L70.74 69.95L72.26 71.44L73.79 72.91L74.79 71.98C75.33 71.49 76.23 70.64 76.8 70.12L77.8 69.19L76.14 67.52L74.48 65.84L75.67 64.21C76.31 63.31 76.87 62.48 76.92 62.36C76.94 62.24 77.82 62.53 78.84 63C79.86 63.47 80.83 63.85 80.97 63.85C81.18 63.85 83.48 59.64 83.48 59.27C83.48 59.22 82.63 58.77 81.59 58.27C80.55 57.8 79.69 57.33 79.69 57.26C79.69 57.19 80 56.31 80.38 55.34C80.76 54.37 81.11 53.28 81.21 52.91L81.35 52.27L75.78 52.27L70.22 52.27L69.86 53.12C69.37 54.33 67.94 56.64 66.74 58.23C65.65 59.67 62.69 62.67 62.35 62.67C62.24 62.67 61.55 61.75 60.82 60.61C60.08 59.46 58.75 57.45 57.85 56.1C56.98 54.77 56.24 53.62 56.24 53.54C56.24 53.5 56.67 52.88 57.22 52.22C58.87 50.12 60.2 47 60.6 44.16L60.77 43.05L61.83 43.05C62.76 43.05 62.88 43.1 62.88 43.59C62.88 45.27 61.24 49.88 60.03 51.56C59.77 51.91 59.56 52.29 59.56 52.36C59.56 52.43 60.06 52.5 60.7 52.5C61.45 52.5 62.31 52.74 63.3 53.21C64.13 53.62 64.89 53.88 65.01 53.81C65.22 53.66 65.81 52.27 65.69 52.17C65.65 52.15 65.1 51.82 64.46 51.46C63.49 50.92 63.37 50.78 63.59 50.38C63.89 49.81 63.97 49.81 65.24 50.26C66.55 50.71 66.55 50.71 66.85 50.02C67.31 49.03 67.19 48.82 66.03 48.37C64.56 47.82 64.49 47.73 64.68 46.97C64.82 46.33 64.84 46.33 66.31 46.48C67.12 46.57 67.85 46.55 67.92 46.45C67.99 46.33 68.09 45.86 68.13 45.41L68.21 44.59L66.78 44.35C65.58 44.14 65.34 44.02 65.29 43.57C65.22 43.07 65.29 43.05 66.76 43.05L68.32 43.05L68.32 41.98L68.32 40.92L66.78 40.92L65.24 40.92L65.24 40.12C65.24 39.22 65.32 39.17 67.09 38.91L68.13 38.75L67.97 37.87C67.87 37.4 67.73 36.95 67.66 36.86C67.57 36.78 66.93 36.81 66.24 36.95C65.2 37.16 64.91 37.14 64.75 36.88C64.37 36.26 64.53 36.05 65.86 35.6C66.57 35.37 67.21 35.11 67.23 35.03C67.28 34.96 67.16 34.49 66.97 34.02L66.62 33.17L65.32 33.62C64.58 33.85 63.97 34.04 63.94 34.02C63.82 33.76 63.35 32.6 63.35 32.53C63.35 32.48 63.94 32.1 64.68 31.7C65.39 31.28 66.05 30.8 66.12 30.64C66.26 30.26 65.53 29.1 65.15 29.1C65.01 29.12 64.37 29.48 63.7 29.93C62.52 30.73 62.52 30.73 62.14 30.26C61.79 29.79 61.76 29.79 60.77 30.68L59.75 31.58L60.34 32.48C61.22 33.76 62.35 36.83 62.69 38.77C62.85 39.69 62.92 40.5 62.85 40.54C62.78 40.61 62.31 40.73 61.76 40.83L60.79 40.97L60.63 39.83C60.37 37.92 59.58 35.46 58.61 33.69L57.71 32.01L60.84 29.41C70.01 21.73 73.56 18.77 74.96 17.66L76.49 16.41L78.15 16.57C79.08 16.67 79.81 16.71 79.83 16.71C80.14 16.38 84.67 8.72 84.67 8.53C84.67 8.2 85.02 8.13 79.62 9.72L75.22 11.02L75.1 12.08C75.03 12.67 74.91 13.73 74.81 14.44L74.65 15.74L65.65 23.21L56.62 30.71L55.18 29.41C53.59 27.97 50.75 26.45 48.76 26C47.53 25.72 47.48 25.7 47.48 24.92C47.48 24.04 47.39 24.07 49.61 24.63C50.06 24.75 50.51 24.85 50.63 24.85C50.73 24.85 50.8 23.99 50.8 22.93C50.8 21.18 50.75 21.02 50.3 20.9C49.85 20.78 49.83 20.64 49.97 19.53L50.11 18.27L49.14 18.11C48.59 18.01 48.12 17.99 48.05 18.06C48 18.11 47.86 18.63 47.76 19.2C47.67 19.79 47.46 20.24 47.29 20.21C47.15 20.19 46.84 20.17 46.65 20.14C46.39 20.12 46.3 19.81 46.3 18.94L46.3 17.75L45.23 17.75L44.16 17.75L44.16 18.94C44.16 19.91 44.09 20.12 43.76 20.12C43.53 20.12 43.1 20.19 42.81 20.26C42.34 20.38 42.27 20.28 42.13 19.46C41.91 18.11 41.77 17.99 40.75 18.16L39.85 18.3L40.02 19.53C40.16 20.69 40.14 20.78 39.62 20.92C38.79 21.13 38.79 21.13 38.48 20C38.15 18.82 38.1 18.79 36.94 19.27L36.14 19.62L36.47 20.45C36.66 20.9 36.82 21.51 36.82 21.8C36.82 22.2 37.86 24.07 38.62 25.03C38.65 25.08 39.64 24.92 40.8 24.63C43.53 23.99 43.5 23.99 43.41 24.87C43.34 25.58 43.24 25.65 41.44 26.19C40.4 26.5 39.38 26.81 39.17 26.88C38.88 26.97 38.1 25.98 36.11 22.91C34.64 20.66 33.29 18.58 33.1 18.3C32.77 17.8 32.82 17.75 34.12 17.16C37.18 15.77 41.73 14.68 44.59 14.68L45.59 14.68L45.59 9.36L45.59 4.04L44.45 4.04L43.29 4.04L42.98 2.03C42.63 -0.28 42.91 -0.14 39.48 0.38C38.39 0.54 37.44 0.73 37.39 0.8ZM55.37 43.43C53.99 51.44 44.05 54.56 38.31 48.77C32.94 43.31 35.47 34.3 42.98 32.27C44.33 31.89 45.61 31.87 47.39 32.2C52.64 33.17 56.24 38.23 55.37 43.43Z" stroke="#0F2346" stroke-opacity="1.000000" stroke-width="0.133333"/>
	<path id="path" d="M43.93 36.41C41.16 37.3 39.45 39.76 39.74 42.43C40.07 45.63 42.27 47.63 45.47 47.63C46.7 47.63 47.36 47.52 48.07 47.14C52.24 44.92 52.27 38.98 48.12 36.86C47.08 36.33 44.88 36.1 43.93 36.41Z" fill="#0F2346" fill-opacity="1.000000" fill-rule="nonzero"/>
	<path id="path" d="M39.74 42.43C40.07 45.63 42.27 47.63 45.47 47.63C46.7 47.63 47.36 47.52 48.07 47.14C52.24 44.92 52.27 38.98 48.12 36.86C47.08 36.33 44.88 36.1 43.93 36.41C41.16 37.3 39.45 39.76 39.74 42.43Z" stroke="#0F2346" stroke-opacity="1.000000" stroke-width="0.133333"/>
	<path id="path" d="M58.87 24.07L57.93 25.18L57.31 24.61C57 24.3 56.67 24.09 56.62 24.16C56.58 24.21 56.24 24.87 55.89 25.65L55.23 27.02L56.27 27.94C56.84 28.44 57.38 28.84 57.45 28.86C57.85 28.89 59.75 27.14 59.63 26.83C59.56 26.67 59.89 26.08 60.37 25.51C60.84 24.96 61.22 24.4 61.22 24.23C61.22 24.07 60.91 23.71 60.53 23.45L59.84 22.95L58.87 24.07Z" fill="#0F2346" fill-opacity="1.000000" fill-rule="nonzero"/>
	<path id="path" d="M57.93 25.18L57.31 24.61C57 24.3 56.67 24.09 56.62 24.16C56.58 24.21 56.24 24.87 55.89 25.65L55.23 27.02L56.27 27.94C56.84 28.44 57.38 28.84 57.45 28.86C57.85 28.89 59.75 27.14 59.63 26.83C59.56 26.67 59.89 26.08 60.37 25.51C60.84 24.96 61.22 24.4 61.22 24.23C61.22 24.07 60.91 23.71 60.53 23.45L59.84 22.95L58.87 24.07L57.93 25.18Z" stroke="#0F2346" stroke-opacity="1.000000" stroke-width="0.133333"/>
	<path id="path" d="M29.1 24.7C28.67 25.03 28.67 25.08 29.43 25.84C30.29 26.74 30.36 27.02 29.84 27.45C29.48 27.73 29.36 27.68 27.92 26.62C27.7 26.48 27.42 26.57 26.99 26.97C26.66 27.28 26.4 27.64 26.4 27.78C26.42 27.92 26.83 28.34 27.32 28.75L28.22 29.46L27.77 30.35L27.32 31.25L26.24 30.66C25.64 30.33 25.07 30.05 24.96 30.05C24.84 30.05 24.58 30.38 24.39 30.78C23.94 31.65 24.1 31.91 25.45 32.53C26.42 32.95 26.57 33.21 26.19 33.83C26 34.11 25.79 34.11 24.62 33.73C23.89 33.5 23.25 33.36 23.23 33.4C23.06 33.64 22.61 34.82 22.61 34.99C22.61 35.11 23.25 35.41 24.06 35.7C25.12 36.1 25.45 36.31 25.36 36.59C25.29 36.78 25.22 37.09 25.22 37.3C25.22 37.61 24.96 37.64 23.58 37.49L21.97 37.33L21.81 38.08C21.57 39.36 21.62 39.43 22.8 39.6C24.46 39.83 24.74 39.98 24.74 40.45C24.74 40.85 24.53 40.9 23.16 40.97L21.55 41.04L21.47 42.03L21.4 43.05L23.06 43.05L24.72 43.05L24.86 44.16C25.1 45.91 25.07 45.89 26.61 45.89L28.01 45.89L27.77 44.87C27.4 43.24 27.68 38.46 28.3 36.55C29.08 34.09 30.31 31.89 31.9 30.16L33.32 28.63L32.3 27.26C31.16 25.74 29.93 24.37 29.72 24.37C29.65 24.37 29.36 24.51 29.1 24.7Z" fill="#0F2346" fill-opacity="1.000000" fill-rule="nonzero"/>
	<path id="path" d="M29.43 25.84C30.29 26.74 30.36 27.02 29.84 27.45C29.48 27.73 29.36 27.68 27.92 26.62C27.7 26.48 27.42 26.57 26.99 26.97C26.66 27.28 26.4 27.64 26.4 27.78C26.42 27.92 26.83 28.34 27.32 28.75L28.22 29.46L27.77 30.35L27.32 31.25L26.24 30.66C25.64 30.33 25.07 30.05 24.96 30.05C24.84 30.05 24.58 30.38 24.39 30.78C23.94 31.65 24.1 31.91 25.45 32.53C26.42 32.95 26.57 33.21 26.19 33.83C26 34.11 25.79 34.11 24.62 33.73C23.89 33.5 23.25 33.36 23.23 33.4C23.06 33.64 22.61 34.82 22.61 34.99C22.61 35.11 23.25 35.41 24.06 35.7C25.12 36.1 25.45 36.31 25.36 36.59C25.29 36.78 25.22 37.09 25.22 37.3C25.22 37.61 24.96 37.64 23.58 37.49L21.97 37.33L21.81 38.08C21.57 39.36 21.62 39.43 22.8 39.6C24.46 39.83 24.74 39.98 24.74 40.45C24.74 40.85 24.53 40.9 23.16 40.97L21.55 41.04L21.47 42.03L21.4 43.05L23.06 43.05L24.72 43.05L24.86 44.16C25.1 45.91 25.07 45.89 26.61 45.89L28.01 45.89L27.77 44.87C27.4 43.24 27.68 38.46 28.3 36.55C29.08 34.09 30.31 31.89 31.9 30.16L33.32 28.63L32.3 27.26C31.16 25.74 29.93 24.37 29.72 24.37C29.65 24.37 29.36 24.51 29.1 24.7C28.67 25.03 28.67 25.08 29.43 25.84Z" stroke="#0F2346" stroke-opacity="1.000000" stroke-width="0.133333"/>
	<path id="PRO Детали" d="M213.52 61.05L218.21 61.05L218.46 50.12L214.85 50.12L214.85 25.62L196.92 25.62L196.18 38.24Q195.89 42.2 194.87 45.34Q193.86 48.47 192.16 50.12L189.87 50.12L190.03 61.05L194.79 61.05L194.79 54.06L213.52 54.06L213.52 61.05ZM209.93 50.12L197.74 50.12Q200.63 45.64 201.16 37.62L201.63 29.61L209.93 29.61L209.93 50.12ZM225.54 53.05Q227.86 54.45 231.02 54.45Q233.66 54.45 235.78 53.41Q237.12 52.75 238.12 51.75Q238.7 51.16 239.17 50.47L236.61 48.03Q235.52 49.42 234.09 50.08Q232.83 50.66 231.3 50.66Q229.85 50.66 228.7 50.07Q228.02 49.71 227.44 49.14Q227.25 48.95 227.09 48.75Q225.88 47.3 225.69 45L239.5 45L239.5 43.08Q239.5 38.04 237.15 35.29Q236.54 34.58 235.79 34.05Q233.67 32.54 230.48 32.54Q228.76 32.54 227.25 33.09Q226.37 33.41 225.55 33.92Q224.9 34.33 224.34 34.84Q222.99 36.05 222.13 37.8Q220.91 40.29 220.91 43.45L220.91 44.04Q220.91 47.73 222.62 50.27Q223.09 50.99 223.71 51.61Q224.55 52.46 225.54 53.05ZM274.52 52.09Q274.75 53.45 275.07 54.06L279.91 54.06L279.91 53.73Q279.11 52.03 279.11 49.18L279.11 39.65Q279.07 37.21 277.9 35.56Q277.46 34.92 276.84 34.4Q276.78 34.35 276.72 34.3Q274.53 32.54 270.93 32.54Q268.48 32.54 266.5 33.4Q264.58 34.23 263.44 35.68Q263.4 35.72 263.37 35.77Q262.54 36.85 262.31 38.05Q262.21 38.53 262.21 39.02L266.96 39.02Q266.96 38.48 267.16 38.02Q267.41 37.42 268 36.96Q268.05 36.92 268.1 36.88Q269.11 36.15 270.65 36.15Q272.43 36.15 273.35 37.04Q273.4 37.09 273.45 37.14Q273.59 37.29 273.71 37.46Q274.36 38.38 274.36 39.76L274.36 41.15L271.45 41.15Q266.79 41.15 264.28 42.96Q263.29 43.67 262.69 44.63Q261.76 46.1 261.76 48.14Q261.76 49.43 262.23 50.52Q262.73 51.69 263.78 52.63Q264.18 53 264.64 53.29Q266.43 54.45 268.97 54.45Q270.63 54.45 272.02 53.85Q273.39 53.26 274.52 52.09ZM252.74 36.7L259.6 36.7L259.6 32.93L241.22 32.93L241.22 36.7L248 36.7L248 54.06L252.74 54.06L252.74 36.7ZM302.04 54.06L302.04 32.93L286.84 32.93L286.45 41.95Q286.26 46.42 285.54 48.11Q285.08 49.21 284.26 49.69Q283.81 49.94 283.27 50.02L282.29 50.12L282.31 54.06L283.78 54.06Q286.24 54.06 287.79 52.87Q288.41 52.4 288.88 51.75Q290.55 49.43 290.93 44.12L291.32 36.76L297.29 36.76L297.29 54.06L302.04 54.06ZM325.01 32.93L320.28 32.93L312 47.03L312 32.93L307.27 32.93L307.27 54.06L312 54.06L320.28 39.96L320.28 54.06L325.01 54.06L325.01 32.93ZM228.37 36.84Q229.28 36.35 230.46 36.35Q231.96 36.35 232.96 37.05Q233.28 37.27 233.54 37.57Q234.66 38.79 234.81 41.17L234.81 41.52L225.77 41.52Q226.1 39.08 227.3 37.71Q227.78 37.17 228.37 36.84ZM271.14 50.49Q270.51 50.64 269.85 50.64Q268.47 50.64 267.6 49.98Q267.51 49.91 267.42 49.83Q267.12 49.56 266.92 49.24Q266.51 48.57 266.51 47.65Q266.51 46.74 266.91 46.05Q267.24 45.47 267.84 45.06Q269.17 44.14 271.8 44.14L274.36 44.14L274.36 48.12Q274.2 48.42 274 48.69Q273.42 49.45 272.5 49.96Q271.84 50.32 271.14 50.49Z" fill="#0F2346" fill-opacity="1.000000" fill-rule="evenodd"/>
	<path id="PRO Детали" d="M175.73 47.92Q177.18 44.76 177.18 40.58L177.18 39Q177.16 34.84 175.69 31.71Q174.56 29.29 172.71 27.74Q172.16 27.28 171.54 26.9Q171.02 26.58 170.47 26.32Q168.18 25.23 165.38 25.23Q162.63 25.23 160.38 26.29Q159.78 26.57 159.22 26.92Q158.69 27.25 158.21 27.64Q156.24 29.24 155.06 31.79Q153.58 34.98 153.58 39.14L153.58 40.74Q153.6 44.82 155.08 47.95Q156.18 50.28 157.97 51.82Q158.57 52.33 159.25 52.76Q159.9 53.17 160.6 53.47Q162.79 54.45 165.42 54.45Q168.24 54.45 170.53 53.35Q171.08 53.09 171.6 52.76Q172.22 52.37 172.78 51.9Q174.62 50.34 175.73 47.92ZM108.89 54.06L108.89 43.49L114.77 43.49Q119.71 43.49 122.46 41.17Q123.26 40.49 123.83 39.65Q125.2 37.62 125.2 34.67Q125.2 32.1 124.1 30.17Q123.44 29.03 122.4 28.1Q122.22 27.94 122.03 27.79Q119.29 25.62 114.83 25.62L103.95 25.62L103.95 54.06L108.89 54.06ZM134.46 43.1L139.97 43.1L145.67 54.06L150.96 54.06L150.96 53.81L144.58 41.95Q146.77 41.03 148.1 39.41Q148.26 39.2 148.42 38.99Q148.47 38.91 148.52 38.84Q149.79 36.95 149.79 34.22Q149.79 31.1 148.3 29.08Q147.8 28.39 147.12 27.83Q144.44 25.62 139.52 25.62L129.52 25.62L129.52 54.06L134.46 54.06L134.46 43.1ZM170.45 31.85Q172.23 34.37 172.23 39.1L172.23 40.58Q172.23 45.39 170.47 47.89Q169.73 48.93 168.72 49.54Q167.33 50.39 165.42 50.39Q163.68 50.39 162.34 49.65Q161.2 49.01 160.35 47.83Q158.52 45.27 158.52 40.58L158.52 38.94Q158.56 34.35 160.37 31.84Q161.2 30.69 162.32 30.07Q163.64 29.33 165.38 29.33Q167.25 29.33 168.64 30.16Q169.68 30.77 170.45 31.85ZM114.83 39.53L108.89 39.53L108.89 29.61L114.97 29.61Q117.13 29.64 118.47 30.7Q118.66 30.85 118.84 31.02Q119.18 31.36 119.44 31.76Q120.24 32.97 120.24 34.7Q120.24 36.64 119.3 37.82Q119.1 38.07 118.86 38.29Q117.47 39.53 114.83 39.53ZM139.54 39.14L134.46 39.14L134.46 29.61L139.67 29.61Q142.25 29.65 143.55 30.9Q143.74 31.07 143.9 31.27Q144.85 32.47 144.85 34.43Q144.85 36 144.13 37.09Q143.85 37.52 143.45 37.88Q143.42 37.9 143.39 37.92Q142 39.14 139.54 39.14Z" fill="#CC5722" fill-opacity="1.000000" fill-rule="evenodd"/>
</svg>
