<svg width="274.000000" height="41.747070" viewBox="0 0 274 41.7471" fill="none" xmlns="http://www.w3.org/2000/svg" xmlns:xlink="http://www.w3.org/1999/xlink">
	<desc>
			Created with Pixso.
	</desc>
	<defs/>
	<path id="Звезда 1" d="M21 0L16.28 14.42L1.02 14.42L13.37 23.33L8.65 37.76L21 28.84L33.34 37.76L28.62 23.33L40.97 14.42L25.71 14.42L21 0Z" fill="#CC5722" fill-opacity="1.000000" fill-rule="nonzero"/>
	<path id="Звезда 1" d="M74.28 14.42L59.02 14.42L71.37 23.33L66.65 37.76L79 28.84L91.34 37.76L86.62 23.33L98.97 14.42L83.71 14.42L79 0L74.28 14.42ZM79 3.21L75.01 15.42L62.12 15.42L72.54 22.95L68.56 35.15L79 27.61L89.43 35.15L85.45 22.95L95.87 15.42L82.99 15.42L79 3.21Z" fill="#CC5722" fill-opacity="1.000000" fill-rule="evenodd"/>
	<path id="Звезда 1" d="M132.28 14.42L117.02 14.42L129.37 23.33L124.65 37.76L137 28.84L149.34 37.76L144.62 23.33L156.97 14.42L141.71 14.42L137 0L132.28 14.42ZM137 3.21L133 15.42L120.12 15.42L130.54 22.95L126.56 35.15L137 27.61L147.43 35.15L143.45 22.95L153.88 15.42L140.99 15.42L137 3.21Z" fill="#CC5722" fill-opacity="1.000000" fill-rule="evenodd"/>
	<path id="Звезда 1" d="M190.28 14.42L175.02 14.42L187.37 23.33L182.65 37.76L195 28.84L207.34 37.76L202.62 23.33L214.97 14.42L199.71 14.42L195 0L190.28 14.42ZM195 3.21L191.01 15.42L178.12 15.42L188.54 22.95L184.56 35.15L195 27.61L205.43 35.15L201.45 22.95L211.88 15.42L198.99 15.42L195 3.21Z" fill="#CC5722" fill-opacity="1.000000" fill-rule="evenodd"/>
	<path id="Звезда 1" d="M248.28 14.42L233.02 14.42L245.37 23.33L240.65 37.76L253 28.84L265.34 37.76L260.62 23.33L272.97 14.42L257.71 14.42L253 0L248.28 14.42ZM253 3.21L249.01 15.42L236.12 15.42L246.54 22.95L242.56 35.15L253 27.61L263.43 35.15L259.45 22.95L269.88 15.42L256.99 15.42L253 3.21Z" fill="#CC5722" fill-opacity="1.000000" fill-rule="evenodd"/>
</svg>

